<mxfile host="65bd71144e">
    <diagram id="K-JY5hhzv0HOX1Lej9gR" name="Page-1">
        <mxGraphModel dx="1352" dy="549" grid="1" gridSize="10" guides="1" tooltips="1" connect="1" arrows="1" fold="1" page="0" pageScale="1" pageWidth="1100" pageHeight="850" math="0" shadow="0">
            <root>
                <mxCell id="0"/>
                <mxCell id="1" parent="0"/>
                <mxCell id="218" value="&lt;&lt;Abstraction&gt;&gt;&#10;Abstraction" style="swimlane;fontStyle=1;align=center;verticalAlign=top;childLayout=stackLayout;horizontal=1;startSize=40;horizontalStack=0;resizeParent=1;resizeParentMax=0;resizeLast=0;collapsible=1;marginBottom=0;" parent="1" vertex="1">
                    <mxGeometry x="218" y="230" width="160" height="100" as="geometry"/>
                </mxCell>
                <mxCell id="219" value="-impl:Implementer" style="text;strokeColor=none;fillColor=none;align=left;verticalAlign=top;spacingLeft=4;spacingRight=4;overflow=hidden;rotatable=0;points=[[0,0.5],[1,0.5]];portConstraint=eastwest;" parent="218" vertex="1">
                    <mxGeometry y="40" width="160" height="26" as="geometry"/>
                </mxCell>
                <mxCell id="220" value="" style="line;strokeWidth=1;fillColor=none;align=left;verticalAlign=middle;spacingTop=-1;spacingLeft=3;spacingRight=3;rotatable=0;labelPosition=right;points=[];portConstraint=eastwest;strokeColor=inherit;" parent="218" vertex="1">
                    <mxGeometry y="66" width="160" height="8" as="geometry"/>
                </mxCell>
                <mxCell id="221" value="+ Operation():void" style="text;strokeColor=none;fillColor=none;align=left;verticalAlign=top;spacingLeft=4;spacingRight=4;overflow=hidden;rotatable=0;points=[[0,0.5],[1,0.5]];portConstraint=eastwest;" parent="218" vertex="1">
                    <mxGeometry y="74" width="160" height="26" as="geometry"/>
                </mxCell>
                <mxCell id="222" value="&lt;&lt;interface&gt;&gt;&#10;Implementer" style="swimlane;fontStyle=1;align=center;verticalAlign=top;childLayout=stackLayout;horizontal=1;startSize=40;horizontalStack=0;resizeParent=1;resizeParentMax=0;resizeLast=0;collapsible=1;marginBottom=0;" parent="1" vertex="1">
                    <mxGeometry x="698" y="230" width="160" height="74" as="geometry"/>
                </mxCell>
                <mxCell id="224" value="" style="line;strokeWidth=1;fillColor=none;align=left;verticalAlign=middle;spacingTop=-1;spacingLeft=3;spacingRight=3;rotatable=0;labelPosition=right;points=[];portConstraint=eastwest;strokeColor=inherit;" parent="222" vertex="1">
                    <mxGeometry y="40" width="160" height="8" as="geometry"/>
                </mxCell>
                <mxCell id="225" value="+ Service():void" style="text;strokeColor=none;fillColor=none;align=left;verticalAlign=top;spacingLeft=4;spacingRight=4;overflow=hidden;rotatable=0;points=[[0,0.5],[1,0.5]];portConstraint=eastwest;" parent="222" vertex="1">
                    <mxGeometry y="48" width="160" height="26" as="geometry"/>
                </mxCell>
                <mxCell id="226" value="RefinedAbstraction1" style="swimlane;fontStyle=1;align=center;verticalAlign=top;childLayout=stackLayout;horizontal=1;startSize=26;horizontalStack=0;resizeParent=1;resizeParentMax=0;resizeLast=0;collapsible=1;marginBottom=0;" parent="1" vertex="1">
                    <mxGeometry x="108" y="410" width="160" height="60" as="geometry"/>
                </mxCell>
                <mxCell id="228" value="" style="line;strokeWidth=1;fillColor=none;align=left;verticalAlign=middle;spacingTop=-1;spacingLeft=3;spacingRight=3;rotatable=0;labelPosition=right;points=[];portConstraint=eastwest;strokeColor=inherit;" parent="226" vertex="1">
                    <mxGeometry y="26" width="160" height="8" as="geometry"/>
                </mxCell>
                <mxCell id="229" value="+ Operation():void" style="text;strokeColor=none;fillColor=none;align=left;verticalAlign=top;spacingLeft=4;spacingRight=4;overflow=hidden;rotatable=0;points=[[0,0.5],[1,0.5]];portConstraint=eastwest;" parent="226" vertex="1">
                    <mxGeometry y="34" width="160" height="26" as="geometry"/>
                </mxCell>
                <mxCell id="230" value="RefinedAbstraction2" style="swimlane;fontStyle=1;align=center;verticalAlign=top;childLayout=stackLayout;horizontal=1;startSize=26;horizontalStack=0;resizeParent=1;resizeParentMax=0;resizeLast=0;collapsible=1;marginBottom=0;" parent="1" vertex="1">
                    <mxGeometry x="298" y="410" width="160" height="60" as="geometry"/>
                </mxCell>
                <mxCell id="231" value="" style="line;strokeWidth=1;fillColor=none;align=left;verticalAlign=middle;spacingTop=-1;spacingLeft=3;spacingRight=3;rotatable=0;labelPosition=right;points=[];portConstraint=eastwest;strokeColor=inherit;" parent="230" vertex="1">
                    <mxGeometry y="26" width="160" height="8" as="geometry"/>
                </mxCell>
                <mxCell id="232" value="+ Operation():void" style="text;strokeColor=none;fillColor=none;align=left;verticalAlign=top;spacingLeft=4;spacingRight=4;overflow=hidden;rotatable=0;points=[[0,0.5],[1,0.5]];portConstraint=eastwest;" parent="230" vertex="1">
                    <mxGeometry y="34" width="160" height="26" as="geometry"/>
                </mxCell>
                <mxCell id="233" value="Implementer1" style="swimlane;fontStyle=1;align=center;verticalAlign=top;childLayout=stackLayout;horizontal=1;startSize=30;horizontalStack=0;resizeParent=1;resizeParentMax=0;resizeLast=0;collapsible=1;marginBottom=0;" parent="1" vertex="1">
                    <mxGeometry x="608" y="370" width="160" height="64" as="geometry"/>
                </mxCell>
                <mxCell id="235" value="" style="line;strokeWidth=1;fillColor=none;align=left;verticalAlign=middle;spacingTop=-1;spacingLeft=3;spacingRight=3;rotatable=0;labelPosition=right;points=[];portConstraint=eastwest;strokeColor=inherit;" parent="233" vertex="1">
                    <mxGeometry y="30" width="160" height="8" as="geometry"/>
                </mxCell>
                <mxCell id="236" value="+ Service():void" style="text;strokeColor=none;fillColor=none;align=left;verticalAlign=top;spacingLeft=4;spacingRight=4;overflow=hidden;rotatable=0;points=[[0,0.5],[1,0.5]];portConstraint=eastwest;" parent="233" vertex="1">
                    <mxGeometry y="38" width="160" height="26" as="geometry"/>
                </mxCell>
                <mxCell id="237" value="Implementer2" style="swimlane;fontStyle=1;align=center;verticalAlign=top;childLayout=stackLayout;horizontal=1;startSize=30;horizontalStack=0;resizeParent=1;resizeParentMax=0;resizeLast=0;collapsible=1;marginBottom=0;" parent="1" vertex="1">
                    <mxGeometry x="808" y="370" width="160" height="64" as="geometry"/>
                </mxCell>
                <mxCell id="239" value="" style="line;strokeWidth=1;fillColor=none;align=left;verticalAlign=middle;spacingTop=-1;spacingLeft=3;spacingRight=3;rotatable=0;labelPosition=right;points=[];portConstraint=eastwest;strokeColor=inherit;" parent="237" vertex="1">
                    <mxGeometry y="30" width="160" height="8" as="geometry"/>
                </mxCell>
                <mxCell id="240" value="+ Service():void" style="text;strokeColor=none;fillColor=none;align=left;verticalAlign=top;spacingLeft=4;spacingRight=4;overflow=hidden;rotatable=0;points=[[0,0.5],[1,0.5]];portConstraint=eastwest;" parent="237" vertex="1">
                    <mxGeometry y="38" width="160" height="26" as="geometry"/>
                </mxCell>
                <mxCell id="241" value="" style="endArrow=diamondThin;endFill=0;endSize=24;html=1;exitX=-0.017;exitY=0.14;exitDx=0;exitDy=0;exitPerimeter=0;" parent="1" source="225" edge="1">
                    <mxGeometry width="160" relative="1" as="geometry">
                        <mxPoint x="718" y="330" as="sourcePoint"/>
                        <mxPoint x="378" y="280" as="targetPoint"/>
                    </mxGeometry>
                </mxCell>
                <mxCell id="242" value="" style="endArrow=block;dashed=1;endFill=0;endSize=12;html=1;exitX=0.75;exitY=0;exitDx=0;exitDy=0;entryX=0.196;entryY=1.171;entryDx=0;entryDy=0;entryPerimeter=0;" parent="1" source="233" target="225" edge="1">
                    <mxGeometry width="160" relative="1" as="geometry">
                        <mxPoint x="718" y="330" as="sourcePoint"/>
                        <mxPoint x="878" y="330" as="targetPoint"/>
                    </mxGeometry>
                </mxCell>
                <mxCell id="243" value="" style="endArrow=block;dashed=1;endFill=0;endSize=12;html=1;exitX=0.188;exitY=0;exitDx=0;exitDy=0;exitPerimeter=0;entryX=0.88;entryY=1.115;entryDx=0;entryDy=0;entryPerimeter=0;" parent="1" source="237" target="225" edge="1">
                    <mxGeometry width="160" relative="1" as="geometry">
                        <mxPoint x="718" y="330" as="sourcePoint"/>
                        <mxPoint x="878" y="330" as="targetPoint"/>
                    </mxGeometry>
                </mxCell>
                <mxCell id="244" value="Extends" style="endArrow=block;endSize=16;endFill=0;html=1;entryX=0.23;entryY=1.062;entryDx=0;entryDy=0;entryPerimeter=0;exitX=0.837;exitY=-0.038;exitDx=0;exitDy=0;exitPerimeter=0;" parent="1" target="221" edge="1">
                    <mxGeometry width="160" relative="1" as="geometry">
                        <mxPoint x="251.92000000000007" y="407.72" as="sourcePoint"/>
                        <mxPoint x="248" y="370" as="targetPoint"/>
                    </mxGeometry>
                </mxCell>
                <mxCell id="245" value="Extends" style="endArrow=block;endSize=16;endFill=0;html=1;entryX=0.23;entryY=1.062;entryDx=0;entryDy=0;entryPerimeter=0;exitX=0.079;exitY=0.01;exitDx=0;exitDy=0;exitPerimeter=0;" parent="1" edge="1">
                    <mxGeometry width="160" relative="1" as="geometry">
                        <mxPoint x="310.6399999999999" y="410.6" as="sourcePoint"/>
                        <mxPoint x="310.87999999999994" y="330.00200000000007" as="targetPoint"/>
                    </mxGeometry>
                </mxCell>
                <mxCell id="255" value="&lt;font style=&quot;font-size: 36px;&quot;&gt;Bridge Design Pattern&lt;/font&gt;" style="text;html=1;align=center;verticalAlign=middle;resizable=1;points=[];autosize=1;strokeColor=#C73500;fillColor=#fa6800;fontColor=#000000;fontSize=25;movable=1;rotatable=1;deletable=1;editable=1;connectable=1;" parent="1" vertex="1">
                    <mxGeometry x="30" y="40" width="380" height="60" as="geometry"/>
                </mxCell>
                <mxCell id="260" value="&lt;font style=&quot;font-size: 18px;&quot;&gt;Is a structural pattern that decouples an abstraction from its implementation so that the two can vary independently&lt;/font&gt;" style="shape=note2;boundedLbl=1;whiteSpace=wrap;html=1;size=25;verticalAlign=top;align=left;strokeColor=#FFFFFF;fontSize=12;fillColor=none;" parent="1" vertex="1">
                    <mxGeometry x="450" y="40" width="760" height="75" as="geometry"/>
                </mxCell>
                <mxCell id="261" value="&lt;font style=&quot;font-size: 18px;&quot;&gt;It's purpose is to split a class hierarchy through composition to reduce coupling&lt;/font&gt;" style="text;html=1;align=center;verticalAlign=middle;resizable=0;points=[];autosize=1;strokeColor=none;fillColor=none;fontSize=36;" parent="1" vertex="1">
                    <mxGeometry x="445" y="150" width="650" height="60" as="geometry"/>
                </mxCell>
                <mxCell id="262" value="&quot;Vladimir Khorikov&quot;" style="text;html=1;align=center;verticalAlign=middle;resizable=0;points=[];autosize=1;strokeColor=none;fillColor=none;fontSize=18;" parent="1" vertex="1">
                    <mxGeometry x="440" y="140" width="180" height="40" as="geometry"/>
                </mxCell>
                <mxCell id="473" value="" style="group" parent="1" vertex="1" connectable="0">
                    <mxGeometry x="24.99" y="2130" width="1030" height="445" as="geometry"/>
                </mxCell>
                <mxCell id="377" value="&lt;&lt;interface&gt;&gt;&#10;IDevice" style="swimlane;fontStyle=1;align=center;verticalAlign=top;childLayout=stackLayout;horizontal=1;startSize=40;horizontalStack=0;resizeParent=1;resizeParentMax=0;resizeLast=0;collapsible=1;marginBottom=0;" parent="473" vertex="1">
                    <mxGeometry x="550" y="60" width="160" height="84" as="geometry"/>
                </mxCell>
                <mxCell id="378" value="" style="line;strokeWidth=1;fillColor=none;align=left;verticalAlign=middle;spacingTop=-1;spacingLeft=3;spacingRight=3;rotatable=0;labelPosition=right;points=[];portConstraint=eastwest;strokeColor=inherit;" parent="377" vertex="1">
                    <mxGeometry y="40" width="160" height="8" as="geometry"/>
                </mxCell>
                <mxCell id="379" value="+ PowerOn():void&#10;+ PowerOff():void" style="text;strokeColor=none;fillColor=none;align=left;verticalAlign=top;spacingLeft=4;spacingRight=4;overflow=hidden;rotatable=0;points=[[0,0.5],[1,0.5]];portConstraint=eastwest;" parent="377" vertex="1">
                    <mxGeometry y="48" width="160" height="36" as="geometry"/>
                </mxCell>
                <mxCell id="380" value="AirConditionar" style="swimlane;fontStyle=1;align=center;verticalAlign=top;childLayout=stackLayout;horizontal=1;startSize=26;horizontalStack=0;resizeParent=1;resizeParentMax=0;resizeLast=0;collapsible=1;marginBottom=0;" parent="473" vertex="1">
                    <mxGeometry x="690" y="210" width="120" height="70" as="geometry"/>
                </mxCell>
                <mxCell id="381" value="" style="line;strokeWidth=1;fillColor=none;align=left;verticalAlign=middle;spacingTop=-1;spacingLeft=3;spacingRight=3;rotatable=0;labelPosition=right;points=[];portConstraint=eastwest;strokeColor=inherit;" parent="380" vertex="1">
                    <mxGeometry y="26" width="120" height="8" as="geometry"/>
                </mxCell>
                <mxCell id="382" value="+ PowerOn():void&#10;+ PowerOff():void" style="text;strokeColor=none;fillColor=none;align=left;verticalAlign=top;spacingLeft=4;spacingRight=4;overflow=hidden;rotatable=0;points=[[0,0.5],[1,0.5]];portConstraint=eastwest;" parent="380" vertex="1">
                    <mxGeometry y="34" width="120" height="36" as="geometry"/>
                </mxCell>
                <mxCell id="383" value="Radio" style="swimlane;fontStyle=1;align=center;verticalAlign=top;childLayout=stackLayout;horizontal=1;startSize=26;horizontalStack=0;resizeParent=1;resizeParentMax=0;resizeLast=0;collapsible=1;marginBottom=0;" parent="473" vertex="1">
                    <mxGeometry x="560" y="210" width="120" height="70" as="geometry"/>
                </mxCell>
                <mxCell id="384" value="" style="line;strokeWidth=1;fillColor=none;align=left;verticalAlign=middle;spacingTop=-1;spacingLeft=3;spacingRight=3;rotatable=0;labelPosition=right;points=[];portConstraint=eastwest;strokeColor=inherit;" parent="383" vertex="1">
                    <mxGeometry y="26" width="120" height="8" as="geometry"/>
                </mxCell>
                <mxCell id="385" value="+ PowerOn():void&#10;+ PowerOff():void" style="text;strokeColor=none;fillColor=none;align=left;verticalAlign=top;spacingLeft=4;spacingRight=4;overflow=hidden;rotatable=0;points=[[0,0.5],[1,0.5]];portConstraint=eastwest;" parent="383" vertex="1">
                    <mxGeometry y="34" width="120" height="36" as="geometry"/>
                </mxCell>
                <mxCell id="386" value="TV" style="swimlane;fontStyle=1;align=center;verticalAlign=top;childLayout=stackLayout;horizontal=1;startSize=26;horizontalStack=0;resizeParent=1;resizeParentMax=0;resizeLast=0;collapsible=1;marginBottom=0;" parent="473" vertex="1">
                    <mxGeometry x="430" y="210" width="120" height="70" as="geometry"/>
                </mxCell>
                <mxCell id="387" value="" style="line;strokeWidth=1;fillColor=none;align=left;verticalAlign=middle;spacingTop=-1;spacingLeft=3;spacingRight=3;rotatable=0;labelPosition=right;points=[];portConstraint=eastwest;strokeColor=inherit;" parent="386" vertex="1">
                    <mxGeometry y="26" width="120" height="8" as="geometry"/>
                </mxCell>
                <mxCell id="388" value="+ PowerOn():void&#10;+ PowerOff():void" style="text;strokeColor=none;fillColor=none;align=left;verticalAlign=top;spacingLeft=4;spacingRight=4;overflow=hidden;rotatable=0;points=[[0,0.5],[1,0.5]];portConstraint=eastwest;" parent="386" vertex="1">
                    <mxGeometry y="34" width="120" height="36" as="geometry"/>
                </mxCell>
                <mxCell id="389" value="&lt;&lt;abstract&gt;&gt;&#10;RemoteControl" style="swimlane;fontStyle=1;align=center;verticalAlign=top;childLayout=stackLayout;horizontal=1;startSize=40;horizontalStack=0;resizeParent=1;resizeParentMax=0;resizeLast=0;collapsible=1;marginBottom=0;" parent="473" vertex="1">
                    <mxGeometry x="90" width="160" height="134" as="geometry"/>
                </mxCell>
                <mxCell id="390" value="# device:IDevice&#10;# logger:ILoogerService" style="text;strokeColor=none;fillColor=none;align=left;verticalAlign=top;spacingLeft=4;spacingRight=4;overflow=hidden;rotatable=0;points=[[0,0.5],[1,0.5]];portConstraint=eastwest;" parent="389" vertex="1">
                    <mxGeometry y="40" width="160" height="40" as="geometry"/>
                </mxCell>
                <mxCell id="391" value="" style="line;strokeWidth=1;fillColor=none;align=left;verticalAlign=middle;spacingTop=-1;spacingLeft=3;spacingRight=3;rotatable=0;labelPosition=right;points=[];portConstraint=eastwest;strokeColor=inherit;" parent="389" vertex="1">
                    <mxGeometry y="80" width="160" height="14" as="geometry"/>
                </mxCell>
                <mxCell id="392" value="+ TurnOn():void&#10;+ TurnOff():void" style="text;strokeColor=none;fillColor=none;align=left;verticalAlign=top;spacingLeft=4;spacingRight=4;overflow=hidden;rotatable=0;points=[[0,0.5],[1,0.5]];portConstraint=eastwest;" parent="389" vertex="1">
                    <mxGeometry y="94" width="160" height="40" as="geometry"/>
                </mxCell>
                <mxCell id="393" value="BasicRemote" style="swimlane;fontStyle=1;align=center;verticalAlign=top;childLayout=stackLayout;horizontal=1;startSize=26;horizontalStack=0;resizeParent=1;resizeParentMax=0;resizeLast=0;collapsible=1;marginBottom=0;" parent="473" vertex="1">
                    <mxGeometry y="230" width="160" height="70" as="geometry"/>
                </mxCell>
                <mxCell id="394" value="" style="line;strokeWidth=1;fillColor=none;align=left;verticalAlign=middle;spacingTop=-1;spacingLeft=3;spacingRight=3;rotatable=0;labelPosition=right;points=[];portConstraint=eastwest;strokeColor=inherit;" parent="393" vertex="1">
                    <mxGeometry y="26" width="160" height="8" as="geometry"/>
                </mxCell>
                <mxCell id="395" value="+ TurnOn():void&#10;+ TurnOff():void" style="text;strokeColor=none;fillColor=none;align=left;verticalAlign=top;spacingLeft=4;spacingRight=4;overflow=hidden;rotatable=0;points=[[0,0.5],[1,0.5]];portConstraint=eastwest;" parent="393" vertex="1">
                    <mxGeometry y="34" width="160" height="36" as="geometry"/>
                </mxCell>
                <mxCell id="396" value="AdvancedRemote" style="swimlane;fontStyle=1;align=center;verticalAlign=top;childLayout=stackLayout;horizontal=1;startSize=26;horizontalStack=0;resizeParent=1;resizeParentMax=0;resizeLast=0;collapsible=1;marginBottom=0;" parent="473" vertex="1">
                    <mxGeometry x="190" y="230" width="160" height="90" as="geometry"/>
                </mxCell>
                <mxCell id="397" value="" style="line;strokeWidth=1;fillColor=none;align=left;verticalAlign=middle;spacingTop=-1;spacingLeft=3;spacingRight=3;rotatable=0;labelPosition=right;points=[];portConstraint=eastwest;strokeColor=inherit;" parent="396" vertex="1">
                    <mxGeometry y="26" width="160" height="8" as="geometry"/>
                </mxCell>
                <mxCell id="398" value="+ TurnOn():void&#10;+ TurnOff():void&#10;+ Mute():void" style="text;strokeColor=none;fillColor=none;align=left;verticalAlign=top;spacingLeft=4;spacingRight=4;overflow=hidden;rotatable=0;points=[[0,0.5],[1,0.5]];portConstraint=eastwest;" parent="396" vertex="1">
                    <mxGeometry y="34" width="160" height="56" as="geometry"/>
                </mxCell>
                <mxCell id="399" value="" style="endArrow=diamondThin;endFill=0;endSize=24;html=1;exitX=-0.001;exitY=-0.115;exitDx=0;exitDy=0;exitPerimeter=0;entryX=1;entryY=0.247;entryDx=0;entryDy=0;entryPerimeter=0;" parent="473" source="379" target="392" edge="1">
                    <mxGeometry width="160" relative="1" as="geometry">
                        <mxPoint x="400" y="80" as="sourcePoint"/>
                        <mxPoint x="260" y="104" as="targetPoint"/>
                    </mxGeometry>
                </mxCell>
                <mxCell id="400" value="" style="endArrow=block;dashed=1;endFill=0;endSize=12;html=1;entryX=0.166;entryY=0.978;entryDx=0;entryDy=0;entryPerimeter=0;" parent="473" target="379" edge="1">
                    <mxGeometry width="160" relative="1" as="geometry">
                        <mxPoint x="500" y="210" as="sourcePoint"/>
                        <mxPoint x="500" y="160" as="targetPoint"/>
                    </mxGeometry>
                </mxCell>
                <mxCell id="401" value="" style="endArrow=block;dashed=1;endFill=0;endSize=12;html=1;entryX=0.438;entryY=0.889;entryDx=0;entryDy=0;entryPerimeter=0;" parent="473" target="379" edge="1">
                    <mxGeometry width="160" relative="1" as="geometry">
                        <mxPoint x="619.5" y="210" as="sourcePoint"/>
                        <mxPoint x="619.5" y="160" as="targetPoint"/>
                    </mxGeometry>
                </mxCell>
                <mxCell id="402" value="" style="endArrow=block;dashed=1;endFill=0;endSize=12;html=1;entryX=0.655;entryY=1.007;entryDx=0;entryDy=0;entryPerimeter=0;" parent="473" target="379" edge="1">
                    <mxGeometry width="160" relative="1" as="geometry">
                        <mxPoint x="740" y="210" as="sourcePoint"/>
                        <mxPoint x="740" y="160" as="targetPoint"/>
                    </mxGeometry>
                </mxCell>
                <mxCell id="403" value="Extends" style="endArrow=block;endSize=16;endFill=0;html=1;exitX=0.818;exitY=0.009;exitDx=0;exitDy=0;exitPerimeter=0;" parent="473" source="393" edge="1">
                    <mxGeometry width="160" relative="1" as="geometry">
                        <mxPoint x="130" y="220" as="sourcePoint"/>
                        <mxPoint x="130" y="130" as="targetPoint"/>
                    </mxGeometry>
                </mxCell>
                <mxCell id="404" value="Extends" style="endArrow=block;endSize=16;endFill=0;html=1;exitX=0.188;exitY=0;exitDx=0;exitDy=0;exitPerimeter=0;" parent="473" source="396" edge="1">
                    <mxGeometry width="160" relative="1" as="geometry">
                        <mxPoint x="220" y="220" as="sourcePoint"/>
                        <mxPoint x="220" y="130" as="targetPoint"/>
                    </mxGeometry>
                </mxCell>
                <mxCell id="405" value="&lt;&lt;interface&gt;&gt;&#10;ILoggingService" style="swimlane;fontStyle=1;align=center;verticalAlign=top;childLayout=stackLayout;horizontal=1;startSize=40;horizontalStack=0;resizeParent=1;resizeParentMax=0;resizeLast=0;collapsible=1;marginBottom=0;" parent="473" vertex="1">
                    <mxGeometry x="850" width="160" height="84" as="geometry"/>
                </mxCell>
                <mxCell id="406" value="" style="line;strokeWidth=1;fillColor=none;align=left;verticalAlign=middle;spacingTop=-1;spacingLeft=3;spacingRight=3;rotatable=0;labelPosition=right;points=[];portConstraint=eastwest;strokeColor=inherit;" parent="405" vertex="1">
                    <mxGeometry y="40" width="160" height="8" as="geometry"/>
                </mxCell>
                <mxCell id="407" value="+Log(message):void" style="text;strokeColor=none;fillColor=none;align=left;verticalAlign=top;spacingLeft=4;spacingRight=4;overflow=hidden;rotatable=0;points=[[0,0.5],[1,0.5]];portConstraint=eastwest;" parent="405" vertex="1">
                    <mxGeometry y="48" width="160" height="36" as="geometry"/>
                </mxCell>
                <mxCell id="408" value="ConsoleLogger" style="swimlane;fontStyle=1;align=center;verticalAlign=top;childLayout=stackLayout;horizontal=1;startSize=26;horizontalStack=0;resizeParent=1;resizeParentMax=0;resizeLast=0;collapsible=1;marginBottom=0;" parent="473" vertex="1">
                    <mxGeometry x="780" y="340" width="120" height="70" as="geometry"/>
                </mxCell>
                <mxCell id="409" value="" style="line;strokeWidth=1;fillColor=none;align=left;verticalAlign=middle;spacingTop=-1;spacingLeft=3;spacingRight=3;rotatable=0;labelPosition=right;points=[];portConstraint=eastwest;strokeColor=inherit;" parent="408" vertex="1">
                    <mxGeometry y="26" width="120" height="8" as="geometry"/>
                </mxCell>
                <mxCell id="410" value="+Log(message):void" style="text;strokeColor=none;fillColor=none;align=left;verticalAlign=top;spacingLeft=4;spacingRight=4;overflow=hidden;rotatable=0;points=[[0,0.5],[1,0.5]];portConstraint=eastwest;" parent="408" vertex="1">
                    <mxGeometry y="34" width="120" height="36" as="geometry"/>
                </mxCell>
                <mxCell id="411" value="" style="endArrow=block;dashed=1;endFill=0;endSize=12;html=1;entryX=0.288;entryY=1.059;entryDx=0;entryDy=0;entryPerimeter=0;exitX=0.5;exitY=0;exitDx=0;exitDy=0;" parent="473" source="408" target="407" edge="1">
                    <mxGeometry width="160" relative="1" as="geometry">
                        <mxPoint x="955.1999999999998" y="149.75" as="sourcePoint"/>
                        <mxPoint x="870.0000000000002" y="84.00200000000041" as="targetPoint"/>
                    </mxGeometry>
                </mxCell>
                <mxCell id="412" value="FileLogger" style="swimlane;fontStyle=1;align=center;verticalAlign=top;childLayout=stackLayout;horizontal=1;startSize=26;horizontalStack=0;resizeParent=1;resizeParentMax=0;resizeLast=0;collapsible=1;marginBottom=0;" parent="473" vertex="1">
                    <mxGeometry x="910" y="340" width="120" height="70" as="geometry"/>
                </mxCell>
                <mxCell id="413" value="" style="line;strokeWidth=1;fillColor=none;align=left;verticalAlign=middle;spacingTop=-1;spacingLeft=3;spacingRight=3;rotatable=0;labelPosition=right;points=[];portConstraint=eastwest;strokeColor=inherit;" parent="412" vertex="1">
                    <mxGeometry y="26" width="120" height="8" as="geometry"/>
                </mxCell>
                <mxCell id="414" value="+Log(message):void" style="text;strokeColor=none;fillColor=none;align=left;verticalAlign=top;spacingLeft=4;spacingRight=4;overflow=hidden;rotatable=0;points=[[0,0.5],[1,0.5]];portConstraint=eastwest;" parent="412" vertex="1">
                    <mxGeometry y="34" width="120" height="36" as="geometry"/>
                </mxCell>
                <mxCell id="415" value="" style="endArrow=block;dashed=1;endFill=0;endSize=12;html=1;entryX=0.485;entryY=1.179;entryDx=0;entryDy=0;entryPerimeter=0;exitX=0.5;exitY=0;exitDx=0;exitDy=0;" parent="473" source="412" target="407" edge="1">
                    <mxGeometry width="160" relative="1" as="geometry">
                        <mxPoint x="850" y="350" as="sourcePoint"/>
                        <mxPoint x="880" y="94.00200000000041" as="targetPoint"/>
                    </mxGeometry>
                </mxCell>
                <mxCell id="416" value="" style="endArrow=diamondThin;endFill=0;endSize=24;html=1;exitX=-0.014;exitY=-0.085;exitDx=0;exitDy=0;exitPerimeter=0;entryX=1;entryY=0.247;entryDx=0;entryDy=0;entryPerimeter=0;" parent="473" source="407" edge="1">
                    <mxGeometry width="160" relative="1" as="geometry">
                        <mxPoint x="549.9999999999998" y="41.75999999999976" as="sourcePoint"/>
                        <mxPoint x="250.1600000000003" y="41.779999999999745" as="targetPoint"/>
                    </mxGeometry>
                </mxCell>
                <mxCell id="417" value="VoiceRemote" style="swimlane;fontStyle=1;align=center;verticalAlign=top;childLayout=stackLayout;horizontal=1;startSize=26;horizontalStack=0;resizeParent=1;resizeParentMax=0;resizeLast=0;collapsible=1;marginBottom=0;" parent="473" vertex="1">
                    <mxGeometry x="100" y="355" width="160" height="90" as="geometry"/>
                </mxCell>
                <mxCell id="418" value="" style="line;strokeWidth=1;fillColor=none;align=left;verticalAlign=middle;spacingTop=-1;spacingLeft=3;spacingRight=3;rotatable=0;labelPosition=right;points=[];portConstraint=eastwest;strokeColor=inherit;" parent="417" vertex="1">
                    <mxGeometry y="26" width="160" height="8" as="geometry"/>
                </mxCell>
                <mxCell id="419" value="+ TurnOn():void&#10;+ TurnOff():void&#10;+ Mute():void" style="text;strokeColor=none;fillColor=none;align=left;verticalAlign=top;spacingLeft=4;spacingRight=4;overflow=hidden;rotatable=0;points=[[0,0.5],[1,0.5]];portConstraint=eastwest;" parent="417" vertex="1">
                    <mxGeometry y="34" width="160" height="56" as="geometry"/>
                </mxCell>
                <mxCell id="420" value="Extends" style="endArrow=block;endSize=16;endFill=0;html=1;exitX=0.818;exitY=0.009;exitDx=0;exitDy=0;exitPerimeter=0;entryX=0.509;entryY=1.064;entryDx=0;entryDy=0;entryPerimeter=0;" parent="473" target="392" edge="1">
                    <mxGeometry x="0.3733" width="160" relative="1" as="geometry">
                        <mxPoint x="170.87999999999988" y="355" as="sourcePoint"/>
                        <mxPoint x="170" y="254.3699999999999" as="targetPoint"/>
                        <Array as="points">
                            <mxPoint x="170" y="215"/>
                        </Array>
                        <mxPoint as="offset"/>
                    </mxGeometry>
                </mxCell>
                <mxCell id="474" value="" style="group" parent="1" vertex="1" connectable="0">
                    <mxGeometry x="50" y="1470" width="1010" height="475" as="geometry"/>
                </mxCell>
                <mxCell id="331" value="&lt;&lt;interface&gt;&gt;&#10;IDevice" style="swimlane;fontStyle=1;align=center;verticalAlign=top;childLayout=stackLayout;horizontal=1;startSize=40;horizontalStack=0;resizeParent=1;resizeParentMax=0;resizeLast=0;collapsible=1;marginBottom=0;" parent="474" vertex="1">
                    <mxGeometry x="660" y="50" width="160" height="84" as="geometry"/>
                </mxCell>
                <mxCell id="333" value="" style="line;strokeWidth=1;fillColor=none;align=left;verticalAlign=middle;spacingTop=-1;spacingLeft=3;spacingRight=3;rotatable=0;labelPosition=right;points=[];portConstraint=eastwest;strokeColor=inherit;" parent="331" vertex="1">
                    <mxGeometry y="40" width="160" height="8" as="geometry"/>
                </mxCell>
                <mxCell id="334" value="+ PowerOn():void&#10;+ PowerOff():void" style="text;strokeColor=none;fillColor=none;align=left;verticalAlign=top;spacingLeft=4;spacingRight=4;overflow=hidden;rotatable=0;points=[[0,0.5],[1,0.5]];portConstraint=eastwest;" parent="331" vertex="1">
                    <mxGeometry y="48" width="160" height="36" as="geometry"/>
                </mxCell>
                <mxCell id="338" value="Radio" style="swimlane;fontStyle=1;align=center;verticalAlign=top;childLayout=stackLayout;horizontal=1;startSize=26;horizontalStack=0;resizeParent=1;resizeParentMax=0;resizeLast=0;collapsible=1;marginBottom=0;" parent="474" vertex="1">
                    <mxGeometry x="740" y="220" width="120" height="70" as="geometry"/>
                </mxCell>
                <mxCell id="339" value="" style="line;strokeWidth=1;fillColor=none;align=left;verticalAlign=middle;spacingTop=-1;spacingLeft=3;spacingRight=3;rotatable=0;labelPosition=right;points=[];portConstraint=eastwest;strokeColor=inherit;" parent="338" vertex="1">
                    <mxGeometry y="26" width="120" height="8" as="geometry"/>
                </mxCell>
                <mxCell id="340" value="+ PowerOn():void&#10;+ PowerOff():void" style="text;strokeColor=none;fillColor=none;align=left;verticalAlign=top;spacingLeft=4;spacingRight=4;overflow=hidden;rotatable=0;points=[[0,0.5],[1,0.5]];portConstraint=eastwest;" parent="338" vertex="1">
                    <mxGeometry y="34" width="120" height="36" as="geometry"/>
                </mxCell>
                <mxCell id="341" value="TV" style="swimlane;fontStyle=1;align=center;verticalAlign=top;childLayout=stackLayout;horizontal=1;startSize=26;horizontalStack=0;resizeParent=1;resizeParentMax=0;resizeLast=0;collapsible=1;marginBottom=0;" parent="474" vertex="1">
                    <mxGeometry x="580" y="220" width="120" height="70" as="geometry"/>
                </mxCell>
                <mxCell id="342" value="" style="line;strokeWidth=1;fillColor=none;align=left;verticalAlign=middle;spacingTop=-1;spacingLeft=3;spacingRight=3;rotatable=0;labelPosition=right;points=[];portConstraint=eastwest;strokeColor=inherit;" parent="341" vertex="1">
                    <mxGeometry y="26" width="120" height="8" as="geometry"/>
                </mxCell>
                <mxCell id="343" value="+ PowerOn():void&#10;+ PowerOff():void" style="text;strokeColor=none;fillColor=none;align=left;verticalAlign=top;spacingLeft=4;spacingRight=4;overflow=hidden;rotatable=0;points=[[0,0.5],[1,0.5]];portConstraint=eastwest;" parent="341" vertex="1">
                    <mxGeometry y="34" width="120" height="36" as="geometry"/>
                </mxCell>
                <mxCell id="344" value="&lt;&lt;abstract&gt;&gt;&#10;RemoteControl" style="swimlane;fontStyle=1;align=center;verticalAlign=top;childLayout=stackLayout;horizontal=1;startSize=40;horizontalStack=0;resizeParent=1;resizeParentMax=0;resizeLast=0;collapsible=1;marginBottom=0;" parent="474" vertex="1">
                    <mxGeometry x="90" width="160" height="134" as="geometry"/>
                </mxCell>
                <mxCell id="345" value="# device:IDevice&#10;" style="text;strokeColor=none;fillColor=none;align=left;verticalAlign=top;spacingLeft=4;spacingRight=4;overflow=hidden;rotatable=0;points=[[0,0.5],[1,0.5]];portConstraint=eastwest;" parent="344" vertex="1">
                    <mxGeometry y="40" width="160" height="40" as="geometry"/>
                </mxCell>
                <mxCell id="346" value="" style="line;strokeWidth=1;fillColor=none;align=left;verticalAlign=middle;spacingTop=-1;spacingLeft=3;spacingRight=3;rotatable=0;labelPosition=right;points=[];portConstraint=eastwest;strokeColor=inherit;" parent="344" vertex="1">
                    <mxGeometry y="80" width="160" height="14" as="geometry"/>
                </mxCell>
                <mxCell id="347" value="+ TurnOn():void&#10;+ TurnOff():void" style="text;strokeColor=none;fillColor=none;align=left;verticalAlign=top;spacingLeft=4;spacingRight=4;overflow=hidden;rotatable=0;points=[[0,0.5],[1,0.5]];portConstraint=eastwest;" parent="344" vertex="1">
                    <mxGeometry y="94" width="160" height="40" as="geometry"/>
                </mxCell>
                <mxCell id="348" value="BasicRemote" style="swimlane;fontStyle=1;align=center;verticalAlign=top;childLayout=stackLayout;horizontal=1;startSize=26;horizontalStack=0;resizeParent=1;resizeParentMax=0;resizeLast=0;collapsible=1;marginBottom=0;" parent="474" vertex="1">
                    <mxGeometry y="230" width="160" height="70" as="geometry"/>
                </mxCell>
                <mxCell id="350" value="" style="line;strokeWidth=1;fillColor=none;align=left;verticalAlign=middle;spacingTop=-1;spacingLeft=3;spacingRight=3;rotatable=0;labelPosition=right;points=[];portConstraint=eastwest;strokeColor=inherit;" parent="348" vertex="1">
                    <mxGeometry y="26" width="160" height="8" as="geometry"/>
                </mxCell>
                <mxCell id="351" value="+ TurnOn():void&#10;+ TurnOff():void" style="text;strokeColor=none;fillColor=none;align=left;verticalAlign=top;spacingLeft=4;spacingRight=4;overflow=hidden;rotatable=0;points=[[0,0.5],[1,0.5]];portConstraint=eastwest;" parent="348" vertex="1">
                    <mxGeometry y="34" width="160" height="36" as="geometry"/>
                </mxCell>
                <mxCell id="352" value="AdvancedRemote" style="swimlane;fontStyle=1;align=center;verticalAlign=top;childLayout=stackLayout;horizontal=1;startSize=26;horizontalStack=0;resizeParent=1;resizeParentMax=0;resizeLast=0;collapsible=1;marginBottom=0;" parent="474" vertex="1">
                    <mxGeometry x="190" y="230" width="160" height="90" as="geometry"/>
                </mxCell>
                <mxCell id="353" value="" style="line;strokeWidth=1;fillColor=none;align=left;verticalAlign=middle;spacingTop=-1;spacingLeft=3;spacingRight=3;rotatable=0;labelPosition=right;points=[];portConstraint=eastwest;strokeColor=inherit;" parent="352" vertex="1">
                    <mxGeometry y="26" width="160" height="8" as="geometry"/>
                </mxCell>
                <mxCell id="354" value="+ TurnOn():void&#10;+ TurnOff():void&#10;+ Mute():void" style="text;strokeColor=none;fillColor=none;align=left;verticalAlign=top;spacingLeft=4;spacingRight=4;overflow=hidden;rotatable=0;points=[[0,0.5],[1,0.5]];portConstraint=eastwest;" parent="352" vertex="1">
                    <mxGeometry y="34" width="160" height="56" as="geometry"/>
                </mxCell>
                <mxCell id="358" value="" style="endArrow=diamondThin;endFill=0;endSize=24;html=1;exitX=-0.01;exitY=0.13;exitDx=0;exitDy=0;exitPerimeter=0;entryX=1;entryY=0.5;entryDx=0;entryDy=0;" parent="474" source="331" target="345" edge="1">
                    <mxGeometry width="160" relative="1" as="geometry">
                        <mxPoint x="400" y="80" as="sourcePoint"/>
                        <mxPoint x="250" y="90" as="targetPoint"/>
                    </mxGeometry>
                </mxCell>
                <mxCell id="359" value="" style="endArrow=block;dashed=1;endFill=0;endSize=12;html=1;entryX=0.273;entryY=1.058;entryDx=0;entryDy=0;entryPerimeter=0;exitX=0.5;exitY=0;exitDx=0;exitDy=0;" parent="474" source="341" target="334" edge="1">
                    <mxGeometry width="160" relative="1" as="geometry">
                        <mxPoint x="500" y="210" as="sourcePoint"/>
                        <mxPoint x="500" y="160" as="targetPoint"/>
                    </mxGeometry>
                </mxCell>
                <mxCell id="360" value="" style="endArrow=block;dashed=1;endFill=0;endSize=12;html=1;exitX=0.25;exitY=0;exitDx=0;exitDy=0;" parent="474" source="338" edge="1">
                    <mxGeometry width="160" relative="1" as="geometry">
                        <mxPoint x="810" y="210" as="sourcePoint"/>
                        <mxPoint x="760" y="135" as="targetPoint"/>
                    </mxGeometry>
                </mxCell>
                <mxCell id="362" value="Extends" style="endArrow=block;endSize=16;endFill=0;html=1;exitX=0.818;exitY=0.009;exitDx=0;exitDy=0;exitPerimeter=0;" parent="474" source="348" edge="1">
                    <mxGeometry width="160" relative="1" as="geometry">
                        <mxPoint x="130" y="220" as="sourcePoint"/>
                        <mxPoint x="130" y="135" as="targetPoint"/>
                    </mxGeometry>
                </mxCell>
                <mxCell id="363" value="Extends" style="endArrow=block;endSize=16;endFill=0;html=1;exitX=0.188;exitY=0;exitDx=0;exitDy=0;exitPerimeter=0;" parent="474" source="352" edge="1">
                    <mxGeometry width="160" relative="1" as="geometry">
                        <mxPoint x="220" y="220" as="sourcePoint"/>
                        <mxPoint x="220" y="135" as="targetPoint"/>
                    </mxGeometry>
                </mxCell>
                <mxCell id="421" value="AirConditioner" style="swimlane;fontStyle=1;align=center;verticalAlign=top;childLayout=stackLayout;horizontal=1;startSize=26;horizontalStack=0;resizeParent=1;resizeParentMax=0;resizeLast=0;collapsible=1;marginBottom=0;" parent="474" vertex="1">
                    <mxGeometry x="890" y="220" width="120" height="70" as="geometry"/>
                </mxCell>
                <mxCell id="422" value="" style="line;strokeWidth=1;fillColor=none;align=left;verticalAlign=middle;spacingTop=-1;spacingLeft=3;spacingRight=3;rotatable=0;labelPosition=right;points=[];portConstraint=eastwest;strokeColor=inherit;" parent="421" vertex="1">
                    <mxGeometry y="26" width="120" height="8" as="geometry"/>
                </mxCell>
                <mxCell id="423" value="+ PowerOn():void&#10;+ PowerOff():void" style="text;strokeColor=none;fillColor=none;align=left;verticalAlign=top;spacingLeft=4;spacingRight=4;overflow=hidden;rotatable=0;points=[[0,0.5],[1,0.5]];portConstraint=eastwest;" parent="421" vertex="1">
                    <mxGeometry y="34" width="120" height="36" as="geometry"/>
                </mxCell>
                <mxCell id="441" value="" style="endArrow=block;dashed=1;endFill=0;endSize=12;html=1;exitX=0.25;exitY=0;exitDx=0;exitDy=0;entryX=0.815;entryY=1.066;entryDx=0;entryDy=0;entryPerimeter=0;" parent="474" source="421" target="334" edge="1">
                    <mxGeometry width="160" relative="1" as="geometry">
                        <mxPoint x="810" y="230" as="sourcePoint"/>
                        <mxPoint x="770" y="145" as="targetPoint"/>
                    </mxGeometry>
                </mxCell>
                <mxCell id="443" value="" style="outlineConnect=0;dashed=0;verticalLabelPosition=bottom;verticalAlign=top;align=center;html=1;shape=mxgraph.aws3.fire_tv;fillColor=#5294CF;gradientColor=none;" parent="474" vertex="1">
                    <mxGeometry x="585" y="332" width="75" height="55.5" as="geometry"/>
                </mxCell>
                <mxCell id="444" value="" style="html=1;verticalLabelPosition=bottom;align=center;labelBackgroundColor=#ffffff;verticalAlign=top;strokeWidth=2;strokeColor=#0080F0;shadow=0;dashed=0;shape=mxgraph.ios7.icons.radio;" parent="474" vertex="1">
                    <mxGeometry x="756.67" y="325" width="83.33" height="62.5" as="geometry"/>
                </mxCell>
                <mxCell id="445" value="" style="sketch=0;outlineConnect=0;fontColor=#232F3E;gradientColor=none;fillColor=#007FFF;strokeColor=#007FFF;dashed=0;verticalLabelPosition=bottom;verticalAlign=top;align=center;html=1;fontSize=12;fontStyle=0;aspect=fixed;pointerEvents=1;shape=mxgraph.aws4.iot_over_the_air_update;" parent="474" vertex="1">
                    <mxGeometry x="910" y="325" width="78" height="63" as="geometry"/>
                </mxCell>
                <mxCell id="447" value="" style="shape=image;verticalLabelPosition=bottom;labelBackgroundColor=default;verticalAlign=top;aspect=fixed;imageAspect=0;image=https://m.media-amazon.com/images/I/51Q0DLGhe4L.__AC_SX300_SY300_QL70_FMwebp_.jpg;" parent="474" vertex="1">
                    <mxGeometry x="200" y="370" width="98.35" height="105" as="geometry"/>
                </mxCell>
                <mxCell id="448" value="" style="shape=image;verticalLabelPosition=bottom;labelBackgroundColor=default;verticalAlign=top;aspect=fixed;imageAspect=0;image=https://www.kbdabfm.uk/wp-content/uploads/2022/11/KB-Sound-BASIC-Remote-Control.jpg;" parent="474" vertex="1">
                    <mxGeometry x="10" y="370" width="85" height="85" as="geometry"/>
                </mxCell>
                <mxCell id="475" value="" style="group" parent="1" vertex="1" connectable="0">
                    <mxGeometry x="20" y="690" width="1080" height="693" as="geometry"/>
                </mxCell>
                <mxCell id="299" value="&lt;&lt;abstract&gt;&gt;&#10;RemoteControl" style="swimlane;fontStyle=1;align=center;verticalAlign=top;childLayout=stackLayout;horizontal=1;startSize=40;horizontalStack=0;resizeParent=1;resizeParentMax=0;resizeLast=0;collapsible=1;marginBottom=0;" parent="475" vertex="1">
                    <mxGeometry x="480" width="160" height="90" as="geometry"/>
                </mxCell>
                <mxCell id="301" value="" style="line;strokeWidth=1;fillColor=none;align=left;verticalAlign=middle;spacingTop=-1;spacingLeft=3;spacingRight=3;rotatable=0;labelPosition=right;points=[];portConstraint=eastwest;strokeColor=inherit;" parent="299" vertex="1">
                    <mxGeometry y="40" width="160" height="8" as="geometry"/>
                </mxCell>
                <mxCell id="302" value="+ TurnOn():void&#10;+ TurnOff():void" style="text;strokeColor=none;fillColor=none;align=left;verticalAlign=top;spacingLeft=4;spacingRight=4;overflow=hidden;rotatable=0;points=[[0,0.5],[1,0.5]];portConstraint=eastwest;" parent="299" vertex="1">
                    <mxGeometry y="48" width="160" height="42" as="geometry"/>
                </mxCell>
                <mxCell id="303" value="BasicRemote" style="swimlane;fontStyle=1;align=center;verticalAlign=top;childLayout=stackLayout;horizontal=1;startSize=26;horizontalStack=0;resizeParent=1;resizeParentMax=0;resizeLast=0;collapsible=1;marginBottom=0;" parent="475" vertex="1">
                    <mxGeometry x="390" y="160" width="160" height="70" as="geometry"/>
                </mxCell>
                <mxCell id="305" value="" style="line;strokeWidth=1;fillColor=none;align=left;verticalAlign=middle;spacingTop=-1;spacingLeft=3;spacingRight=3;rotatable=0;labelPosition=right;points=[];portConstraint=eastwest;strokeColor=inherit;" parent="303" vertex="1">
                    <mxGeometry y="26" width="160" height="8" as="geometry"/>
                </mxCell>
                <mxCell id="306" value="+ TurnOn():void&#10;+ TurnOff():void" style="text;strokeColor=none;fillColor=none;align=left;verticalAlign=top;spacingLeft=4;spacingRight=4;overflow=hidden;rotatable=0;points=[[0,0.5],[1,0.5]];portConstraint=eastwest;" parent="303" vertex="1">
                    <mxGeometry y="34" width="160" height="36" as="geometry"/>
                </mxCell>
                <mxCell id="307" value="AdvancedRemote" style="swimlane;fontStyle=1;align=center;verticalAlign=top;childLayout=stackLayout;horizontal=1;startSize=26;horizontalStack=0;resizeParent=1;resizeParentMax=0;resizeLast=0;collapsible=1;marginBottom=0;" parent="475" vertex="1">
                    <mxGeometry x="580" y="160" width="160" height="70" as="geometry"/>
                </mxCell>
                <mxCell id="308" value="" style="line;strokeWidth=1;fillColor=none;align=left;verticalAlign=middle;spacingTop=-1;spacingLeft=3;spacingRight=3;rotatable=0;labelPosition=right;points=[];portConstraint=eastwest;strokeColor=inherit;" parent="307" vertex="1">
                    <mxGeometry y="26" width="160" height="8" as="geometry"/>
                </mxCell>
                <mxCell id="309" value="+ TurnOn():void&#10;+ TurnOff():void" style="text;strokeColor=none;fillColor=none;align=left;verticalAlign=top;spacingLeft=4;spacingRight=4;overflow=hidden;rotatable=0;points=[[0,0.5],[1,0.5]];portConstraint=eastwest;" parent="307" vertex="1">
                    <mxGeometry y="34" width="160" height="36" as="geometry"/>
                </mxCell>
                <mxCell id="310" value="Extends" style="endArrow=block;endSize=16;endFill=0;html=1;exitX=0.146;exitY=-0.006;exitDx=0;exitDy=0;exitPerimeter=0;" parent="475" edge="1">
                    <mxGeometry width="160" relative="1" as="geometry">
                        <mxPoint x="530.3600000000001" y="159.55600000000004" as="sourcePoint"/>
                        <mxPoint x="530" y="90" as="targetPoint"/>
                    </mxGeometry>
                </mxCell>
                <mxCell id="311" value="Extends" style="endArrow=block;endSize=16;endFill=0;html=1;exitX=0.146;exitY=-0.006;exitDx=0;exitDy=0;exitPerimeter=0;" parent="475" edge="1">
                    <mxGeometry width="160" relative="1" as="geometry">
                        <mxPoint x="590.3600000000001" y="159.55600000000004" as="sourcePoint"/>
                        <mxPoint x="590" y="90" as="targetPoint"/>
                    </mxGeometry>
                </mxCell>
                <mxCell id="312" value="&lt;&lt;abstract&gt;&gt;&#10;RemoteControl" style="swimlane;fontStyle=1;align=center;verticalAlign=top;childLayout=stackLayout;horizontal=1;startSize=40;horizontalStack=0;resizeParent=1;resizeParentMax=0;resizeLast=0;collapsible=1;marginBottom=0;" parent="475" vertex="1">
                    <mxGeometry x="470" y="340" width="160" height="90" as="geometry"/>
                </mxCell>
                <mxCell id="313" value="" style="line;strokeWidth=1;fillColor=none;align=left;verticalAlign=middle;spacingTop=-1;spacingLeft=3;spacingRight=3;rotatable=0;labelPosition=right;points=[];portConstraint=eastwest;strokeColor=inherit;" parent="312" vertex="1">
                    <mxGeometry y="40" width="160" height="8" as="geometry"/>
                </mxCell>
                <mxCell id="314" value="+ TurnOn():void&#10;+ TurnOff():void" style="text;strokeColor=none;fillColor=none;align=left;verticalAlign=top;spacingLeft=4;spacingRight=4;overflow=hidden;rotatable=0;points=[[0,0.5],[1,0.5]];portConstraint=eastwest;" parent="312" vertex="1">
                    <mxGeometry y="48" width="160" height="42" as="geometry"/>
                </mxCell>
                <mxCell id="315" value="BasicTVRemote" style="swimlane;fontStyle=1;align=center;verticalAlign=top;childLayout=stackLayout;horizontal=1;startSize=26;horizontalStack=0;resizeParent=1;resizeParentMax=0;resizeLast=0;collapsible=1;marginBottom=0;" parent="475" vertex="1">
                    <mxGeometry y="515" width="140" height="70" as="geometry"/>
                </mxCell>
                <mxCell id="316" value="" style="line;strokeWidth=1;fillColor=none;align=left;verticalAlign=middle;spacingTop=-1;spacingLeft=3;spacingRight=3;rotatable=0;labelPosition=right;points=[];portConstraint=eastwest;strokeColor=inherit;" parent="315" vertex="1">
                    <mxGeometry y="26" width="140" height="8" as="geometry"/>
                </mxCell>
                <mxCell id="317" value="+ TurnOn():void&#10;+ TurnOff():void" style="text;strokeColor=none;fillColor=none;align=left;verticalAlign=top;spacingLeft=4;spacingRight=4;overflow=hidden;rotatable=0;points=[[0,0.5],[1,0.5]];portConstraint=eastwest;" parent="315" vertex="1">
                    <mxGeometry y="34" width="140" height="36" as="geometry"/>
                </mxCell>
                <mxCell id="318" value="AdvancedTVRemote" style="swimlane;fontStyle=1;align=center;verticalAlign=top;childLayout=stackLayout;horizontal=1;startSize=26;horizontalStack=0;resizeParent=1;resizeParentMax=0;resizeLast=0;collapsible=1;marginBottom=0;" parent="475" vertex="1">
                    <mxGeometry x="170" y="515" width="150" height="70" as="geometry"/>
                </mxCell>
                <mxCell id="319" value="" style="line;strokeWidth=1;fillColor=none;align=left;verticalAlign=middle;spacingTop=-1;spacingLeft=3;spacingRight=3;rotatable=0;labelPosition=right;points=[];portConstraint=eastwest;strokeColor=inherit;" parent="318" vertex="1">
                    <mxGeometry y="26" width="150" height="8" as="geometry"/>
                </mxCell>
                <mxCell id="320" value="+ TurnOn():void&#10;+ TurnOff():void" style="text;strokeColor=none;fillColor=none;align=left;verticalAlign=top;spacingLeft=4;spacingRight=4;overflow=hidden;rotatable=0;points=[[0,0.5],[1,0.5]];portConstraint=eastwest;" parent="318" vertex="1">
                    <mxGeometry y="34" width="150" height="36" as="geometry"/>
                </mxCell>
                <mxCell id="321" value="Extends" style="endArrow=block;endSize=16;endFill=0;html=1;exitX=0.546;exitY=-0.027;exitDx=0;exitDy=0;exitPerimeter=0;" parent="475" source="315" edge="1">
                    <mxGeometry width="160" relative="1" as="geometry">
                        <mxPoint x="520.3600000000001" y="499.55600000000004" as="sourcePoint"/>
                        <mxPoint x="520" y="430" as="targetPoint"/>
                    </mxGeometry>
                </mxCell>
                <mxCell id="322" value="Extends" style="endArrow=block;endSize=16;endFill=0;html=1;exitX=0.5;exitY=0;exitDx=0;exitDy=0;" parent="475" source="318" edge="1">
                    <mxGeometry width="160" relative="1" as="geometry">
                        <mxPoint x="539.3600000000001" y="499.55600000000004" as="sourcePoint"/>
                        <mxPoint x="539" y="430" as="targetPoint"/>
                    </mxGeometry>
                </mxCell>
                <mxCell id="323" value="BasicRadioRemote" style="swimlane;fontStyle=1;align=center;verticalAlign=top;childLayout=stackLayout;horizontal=1;startSize=26;horizontalStack=0;resizeParent=1;resizeParentMax=0;resizeLast=0;collapsible=1;marginBottom=0;" parent="475" vertex="1">
                    <mxGeometry x="370" y="515" width="150" height="70" as="geometry"/>
                </mxCell>
                <mxCell id="324" value="" style="line;strokeWidth=1;fillColor=none;align=left;verticalAlign=middle;spacingTop=-1;spacingLeft=3;spacingRight=3;rotatable=0;labelPosition=right;points=[];portConstraint=eastwest;strokeColor=inherit;" parent="323" vertex="1">
                    <mxGeometry y="26" width="150" height="8" as="geometry"/>
                </mxCell>
                <mxCell id="325" value="+ TurnOn():void&#10;+ TurnOff():void" style="text;strokeColor=none;fillColor=none;align=left;verticalAlign=top;spacingLeft=4;spacingRight=4;overflow=hidden;rotatable=0;points=[[0,0.5],[1,0.5]];portConstraint=eastwest;" parent="323" vertex="1">
                    <mxGeometry y="34" width="150" height="36" as="geometry"/>
                </mxCell>
                <mxCell id="326" value="AdvancedRadioRemote" style="swimlane;fontStyle=1;align=center;verticalAlign=top;childLayout=stackLayout;horizontal=1;startSize=26;horizontalStack=0;resizeParent=1;resizeParentMax=0;resizeLast=0;collapsible=1;marginBottom=0;" parent="475" vertex="1">
                    <mxGeometry x="540" y="515" width="150" height="70" as="geometry"/>
                </mxCell>
                <mxCell id="327" value="" style="line;strokeWidth=1;fillColor=none;align=left;verticalAlign=middle;spacingTop=-1;spacingLeft=3;spacingRight=3;rotatable=0;labelPosition=right;points=[];portConstraint=eastwest;strokeColor=inherit;" parent="326" vertex="1">
                    <mxGeometry y="26" width="150" height="8" as="geometry"/>
                </mxCell>
                <mxCell id="328" value="+ TurnOn():void&#10;+ TurnOff():void" style="text;strokeColor=none;fillColor=none;align=left;verticalAlign=top;spacingLeft=4;spacingRight=4;overflow=hidden;rotatable=0;points=[[0,0.5],[1,0.5]];portConstraint=eastwest;" parent="326" vertex="1">
                    <mxGeometry y="34" width="150" height="36" as="geometry"/>
                </mxCell>
                <mxCell id="329" value="Extends" style="endArrow=block;endSize=16;endFill=0;html=1;exitX=0.5;exitY=0;exitDx=0;exitDy=0;entryX=0.52;entryY=0.986;entryDx=0;entryDy=0;entryPerimeter=0;" parent="475" source="323" target="314" edge="1">
                    <mxGeometry width="160" relative="1" as="geometry">
                        <mxPoint x="440" y="525" as="sourcePoint"/>
                        <mxPoint x="549" y="440" as="targetPoint"/>
                    </mxGeometry>
                </mxCell>
                <mxCell id="330" value="Extends" style="endArrow=block;endSize=16;endFill=0;html=1;exitX=0.5;exitY=0;exitDx=0;exitDy=0;entryX=0.758;entryY=1.022;entryDx=0;entryDy=0;entryPerimeter=0;" parent="475" source="326" target="314" edge="1">
                    <mxGeometry width="160" relative="1" as="geometry">
                        <mxPoint x="660" y="525" as="sourcePoint"/>
                        <mxPoint x="563.1999999999998" y="439.41200000000003" as="targetPoint"/>
                    </mxGeometry>
                </mxCell>
                <mxCell id="430" value="BasicConditionerRemote" style="swimlane;fontStyle=1;align=center;verticalAlign=top;childLayout=stackLayout;horizontal=1;startSize=26;horizontalStack=0;resizeParent=1;resizeParentMax=0;resizeLast=0;collapsible=1;marginBottom=0;" parent="475" vertex="1">
                    <mxGeometry x="740" y="515" width="160" height="70" as="geometry"/>
                </mxCell>
                <mxCell id="431" value="" style="line;strokeWidth=1;fillColor=none;align=left;verticalAlign=middle;spacingTop=-1;spacingLeft=3;spacingRight=3;rotatable=0;labelPosition=right;points=[];portConstraint=eastwest;strokeColor=inherit;" parent="430" vertex="1">
                    <mxGeometry y="26" width="160" height="8" as="geometry"/>
                </mxCell>
                <mxCell id="432" value="+ TurnOn():void&#10;+ TurnOff():void" style="text;strokeColor=none;fillColor=none;align=left;verticalAlign=top;spacingLeft=4;spacingRight=4;overflow=hidden;rotatable=0;points=[[0,0.5],[1,0.5]];portConstraint=eastwest;" parent="430" vertex="1">
                    <mxGeometry y="34" width="160" height="36" as="geometry"/>
                </mxCell>
                <mxCell id="433" value="AdvancedConditionerRemote" style="swimlane;fontStyle=1;align=center;verticalAlign=top;childLayout=stackLayout;horizontal=1;startSize=26;horizontalStack=0;resizeParent=1;resizeParentMax=0;resizeLast=0;collapsible=1;marginBottom=0;" parent="475" vertex="1">
                    <mxGeometry x="910" y="515" width="170" height="70" as="geometry"/>
                </mxCell>
                <mxCell id="434" value="" style="line;strokeWidth=1;fillColor=none;align=left;verticalAlign=middle;spacingTop=-1;spacingLeft=3;spacingRight=3;rotatable=0;labelPosition=right;points=[];portConstraint=eastwest;strokeColor=inherit;" parent="433" vertex="1">
                    <mxGeometry y="26" width="170" height="8" as="geometry"/>
                </mxCell>
                <mxCell id="435" value="+ TurnOn():void&#10;+ TurnOff():void" style="text;strokeColor=none;fillColor=none;align=left;verticalAlign=top;spacingLeft=4;spacingRight=4;overflow=hidden;rotatable=0;points=[[0,0.5],[1,0.5]];portConstraint=eastwest;" parent="433" vertex="1">
                    <mxGeometry y="34" width="170" height="36" as="geometry"/>
                </mxCell>
                <mxCell id="436" value="Extends" style="endArrow=block;endSize=16;endFill=0;html=1;exitX=0.5;exitY=0;exitDx=0;exitDy=0;entryX=0.864;entryY=1.07;entryDx=0;entryDy=0;entryPerimeter=0;" parent="475" target="314" edge="1">
                    <mxGeometry width="160" relative="1" as="geometry">
                        <mxPoint x="810" y="514.0799999999999" as="sourcePoint"/>
                        <mxPoint x="786.28" y="430.00400000000013" as="targetPoint"/>
                    </mxGeometry>
                </mxCell>
                <mxCell id="437" value="Extends" style="endArrow=block;endSize=16;endFill=0;html=1;exitX=0.5;exitY=0;exitDx=0;exitDy=0;entryX=1.013;entryY=1.056;entryDx=0;entryDy=0;entryPerimeter=0;" parent="475" target="314" edge="1">
                    <mxGeometry width="160" relative="1" as="geometry">
                        <mxPoint x="950" y="515" as="sourcePoint"/>
                        <mxPoint x="748.2400000000002" y="433.8600000000001" as="targetPoint"/>
                    </mxGeometry>
                </mxCell>
                <mxCell id="438" value="" style="outlineConnect=0;dashed=0;verticalLabelPosition=bottom;verticalAlign=top;align=center;html=1;shape=mxgraph.aws3.fire_tv;fillColor=#5294CF;gradientColor=none;" parent="475" vertex="1">
                    <mxGeometry x="126" y="630" width="75" height="55.5" as="geometry"/>
                </mxCell>
                <mxCell id="439" value="" style="html=1;verticalLabelPosition=bottom;align=center;labelBackgroundColor=#ffffff;verticalAlign=top;strokeWidth=2;strokeColor=#0080F0;shadow=0;dashed=0;shape=mxgraph.ios7.icons.radio;" parent="475" vertex="1">
                    <mxGeometry x="488.33" y="623" width="83.33" height="62.5" as="geometry"/>
                </mxCell>
                <mxCell id="440" value="" style="sketch=0;outlineConnect=0;fontColor=#232F3E;gradientColor=none;fillColor=#007FFF;strokeColor=#007FFF;dashed=0;verticalLabelPosition=bottom;verticalAlign=top;align=center;html=1;fontSize=12;fontStyle=0;aspect=fixed;pointerEvents=1;shape=mxgraph.aws4.iot_over_the_air_update;" parent="475" vertex="1">
                    <mxGeometry x="880" y="630" width="78" height="63" as="geometry"/>
                </mxCell>
            </root>
        </mxGraphModel>
    </diagram>
</mxfile>